<svg xmlns="http://www.w3.org/2000/svg"  viewBox="0 0 50 50" width="50px" height="50px"><path d="M 9 7 A 1.0001 1.0001 0 0 0 8 8 L 8 41 A 1.0001 1.0001 0 0 0 9 42 L 15 42 A 1.0001 1.0001 0 0 0 16 41 L 16 8 A 1.0001 1.0001 0 0 0 15 7 L 9 7 z M 31 7 C 23.832139 7 18 12.832144 18 20 C 18 27.167856 23.832139 33 31 33 C 38.167861 33 44 27.167856 44 20 C 44 12.832144 38.167861 7 31 7 z M 10 9 L 14 9 L 14 40 L 10 40 L 10 9 z M 31 9 C 37.086982 9 42 13.913022 42 20 C 42 26.086978 37.086982 31 31 31 C 24.913018 31 20 26.086978 20 20 C 20 13.913022 24.913018 9 31 9 z"/></svg>